<?xml version="1.0" encoding="UTF-8" standalone="no"?>
<svg
   xmlns:dc="http://purl.org/dc/elements/1.1/"
   xmlns:cc="http://creativecommons.org/ns#"
   xmlns:rdf="http://www.w3.org/1999/02/22-rdf-syntax-ns#"
   xmlns:svg="http://www.w3.org/2000/svg"
   xmlns="http://www.w3.org/2000/svg"
   viewBox="0 0 447.57333 197.64"
   height="197.64"
   width="447.57333"
   xml:space="preserve"
   id="svg2"
   version="1.1"><metadata
     id="metadata8"><rdf:RDF><cc:Work
         rdf:about=""><dc:format>image/svg+xml</dc:format><dc:type
           rdf:resource="http://purl.org/dc/dcmitype/StillImage" /></cc:Work></rdf:RDF></metadata><defs
     id="defs6" /><g
     transform="matrix(1.3333333,0,0,-1.3333333,0,197.64)"
     id="g10"><g
       transform="scale(0.1)"
       id="g12"><path
         id="path14"
         style="fill:none;stroke:#100f0d;stroke-width:40;stroke-linecap:butt;stroke-linejoin:miter;stroke-miterlimit:10;stroke-dasharray:none;stroke-opacity:1"
         d="M 346.836,1041.61 H 80 c -33.1406,0 -60,-26.92 -60,-60.102 V 500.758 C 20,467.559 46.8594,440.66 80,440.66 h 266.836" /><path
         id="path16"
         style="fill:none;stroke:#100f0d;stroke-width:15;stroke-linecap:round;stroke-linejoin:round;stroke-miterlimit:2;stroke-dasharray:none;stroke-opacity:1"
         d="m 220.316,741.137 c 0,19.355 -16.515,35.051 -36.898,35.051 -20.383,0 -36.898,-15.696 -36.898,-35.051 0,-19.364 16.515,-35.059 36.898,-35.059 20.383,0 36.898,15.695 36.898,35.059 z" /><path
         id="path18"
         style="fill:none;stroke:#100f0d;stroke-width:50;stroke-linecap:round;stroke-linejoin:round;stroke-miterlimit:2;stroke-dasharray:none;stroke-opacity:1"
         d="m 3015.5,440.66 h 256.29 c 33.13,0 60,26.899 60,60.098 v 480.75 c 0,33.182 -26.87,60.102 -60,60.102 H 3015.5" /><path
         id="path20"
         style="fill:none;stroke:#100f0d;stroke-width:15;stroke-linecap:round;stroke-linejoin:round;stroke-miterlimit:2;stroke-dasharray:none;stroke-opacity:1"
         d="m 3119.68,741.137 c 0,-19.364 16.52,-35.059 36.9,-35.059 20.38,0 36.9,15.695 36.9,35.059 0,19.355 -16.52,35.051 -36.9,35.051 -20.38,0 -36.9,-15.696 -36.9,-35.051 z" /><path
         id="path22"
         style="fill:none;stroke:#100f0d;stroke-width:40;stroke-linecap:round;stroke-linejoin:round;stroke-miterlimit:2;stroke-dasharray:none;stroke-opacity:1"
         d="M 2943.71,1462.27 H 406.836 c -33.133,0 -60,-26.91 -60,-60.1 V 80.0898 C 346.836,46.9102 373.703,20 406.836,20 H 2943.71 c 33.13,0 60,26.9102 60,60.0898 V 1402.17 c 0,33.19 -26.87,60.1 -60,60.1 z" /><path
         id="path24"
         style="fill:none;stroke:#100f0d;stroke-width:37.2643013;stroke-linecap:round;stroke-linejoin:round;stroke-miterlimit:2;stroke-dasharray:none;stroke-opacity:1"
         d="M 2776.49,1293.03 H 593.508 c -31.317,0 -56.699,-24.71 -56.699,-55.19 V 244.422 c 0,-30.481 25.382,-55.192 56.699,-55.192 H 2776.49 c 31.31,0 56.7,24.711 56.7,55.192 v 993.418 c 0,30.48 -25.39,55.19 -56.7,55.19 z" /><path
         id="path26"
         style="fill:none;stroke:#100f0d;stroke-width:20;stroke-linecap:round;stroke-linejoin:round;stroke-miterlimit:2;stroke-dasharray:none;stroke-opacity:1"
         d="m 872.363,721.098 c 0,55.312 -47.203,100.156 -105.429,100.156 -58.227,0 -105.434,-44.844 -105.434,-100.156 0,-55.313 47.203,-100.157 105.434,-100.157 58.226,0 105.429,44.844 105.429,100.157 z" /><path
         id="path28"
         style="fill:none;stroke:#100f0d;stroke-width:20;stroke-linecap:round;stroke-linejoin:round;stroke-miterlimit:2;stroke-dasharray:none;stroke-opacity:1"
         d="m 1220.29,721.098 c 0,55.312 -47.2,100.156 -105.44,100.156 -58.22,0 -105.43,-44.844 -105.43,-100.156 0,-55.313 47.21,-100.157 105.43,-100.157 58.24,0 105.44,44.844 105.44,100.157 z" /><path
         id="path30"
         style="fill:none;stroke:#100f0d;stroke-width:20;stroke-linecap:round;stroke-linejoin:round;stroke-miterlimit:2;stroke-dasharray:none;stroke-opacity:1"
         d="m 1589.3,721.098 c 0,55.312 -47.2,100.156 -105.43,100.156 -58.24,0 -105.44,-44.844 -105.44,-100.156 0,-55.313 47.2,-100.157 105.44,-100.157 58.23,0 105.43,44.844 105.43,100.157 z" /><path
         id="path32"
         style="fill:none;stroke:#100f0d;stroke-width:20;stroke-linecap:round;stroke-linejoin:round;stroke-miterlimit:2;stroke-dasharray:none;stroke-opacity:1"
         d="m 1958.31,721.098 c 0,55.312 -47.21,100.156 -105.43,100.156 -58.23,0 -105.44,-44.844 -105.44,-100.156 0,-55.313 47.21,-100.157 105.44,-100.157 58.22,0 105.43,44.844 105.43,100.157 z" /><path
         id="path34"
         style="fill:none;stroke:#100f0d;stroke-width:20;stroke-linecap:round;stroke-linejoin:round;stroke-miterlimit:2;stroke-dasharray:none;stroke-opacity:1"
         d="m 2337.86,721.098 c 0,55.312 -47.21,100.156 -105.43,100.156 -58.23,0 -105.43,-44.844 -105.43,-100.156 0,-55.313 47.2,-100.157 105.43,-100.157 58.22,0 105.43,44.844 105.43,100.157 z" /><path
         id="path36"
         style="fill:none;stroke:#100f0d;stroke-width:20;stroke-linecap:round;stroke-linejoin:round;stroke-miterlimit:2;stroke-dasharray:none;stroke-opacity:1"
         d="m 2738.5,731.117 c 0,55.313 -47.21,100.156 -105.43,100.156 -58.23,0 -105.43,-44.843 -105.43,-100.156 0,-55.312 47.2,-100.156 105.43,-100.156 58.22,0 105.43,44.844 105.43,100.156 z" /></g></g></svg>